<mxfile host="app.diagrams.net" agent="Mozilla/5.0 (Windows NT 10.0; Win64; x64) AppleWebKit/537.36 (KHTML, like Gecko) Chrome/138.0.0.0 Safari/537.36 Edg/138.0.0.0" version="28.0.9">
  <diagram name="Page-1" id="pCF_bqjnFebijJtU8GOS">
    <mxGraphModel dx="695" dy="830" grid="1" gridSize="10" guides="1" tooltips="1" connect="1" arrows="1" fold="1" page="1" pageScale="1" pageWidth="850" pageHeight="1100" math="0" shadow="0">
      <root>
        <mxCell id="0" />
        <mxCell id="1" parent="0" />
        <mxCell id="gzuC3hX4gOzSUYj86gef-1" style="edgeStyle=none;curved=1;rounded=0;orthogonalLoop=1;jettySize=auto;html=1;exitX=0.5;exitY=1;exitDx=0;exitDy=0;fontSize=12;startSize=8;endSize=8;" edge="1" parent="1" source="o1bh6cQ6JeAcg9jFE79u-5" target="o1bh6cQ6JeAcg9jFE79u-6">
          <mxGeometry relative="1" as="geometry" />
        </mxCell>
        <mxCell id="o1bh6cQ6JeAcg9jFE79u-5" value="«interface»&lt;br&gt;&lt;b&gt;ServiceProvider&lt;/b&gt;" style="html=1;whiteSpace=wrap;" parent="1" vertex="1">
          <mxGeometry x="465" y="330" width="110" height="50" as="geometry" />
        </mxCell>
        <mxCell id="o1bh6cQ6JeAcg9jFE79u-6" value="«interface»&lt;br&gt;&lt;b&gt;ServiceRegistry&lt;/b&gt;" style="html=1;whiteSpace=wrap;" parent="1" vertex="1">
          <mxGeometry x="465" y="450" width="110" height="50" as="geometry" />
        </mxCell>
        <mxCell id="gzuC3hX4gOzSUYj86gef-2" value="«interface»&lt;br&gt;&lt;b&gt;ServiceDiscovery&lt;/b&gt;" style="html=1;whiteSpace=wrap;" vertex="1" parent="1">
          <mxGeometry x="100" y="330" width="110" height="50" as="geometry" />
        </mxCell>
        <mxCell id="gzuC3hX4gOzSUYj86gef-11" style="edgeStyle=none;curved=1;rounded=0;orthogonalLoop=1;jettySize=auto;html=1;exitX=0.5;exitY=1;exitDx=0;exitDy=0;fontSize=12;startSize=8;endSize=8;" edge="1" parent="1" source="gzuC3hX4gOzSUYj86gef-3" target="gzuC3hX4gOzSUYj86gef-2">
          <mxGeometry relative="1" as="geometry" />
        </mxCell>
        <mxCell id="gzuC3hX4gOzSUYj86gef-3" value="RpcClient" style="swimlane;fontStyle=0;childLayout=stackLayout;horizontal=1;startSize=30;horizontalStack=0;resizeParent=1;resizeParentMax=0;resizeLast=0;collapsible=1;marginBottom=0;whiteSpace=wrap;html=1;" vertex="1" parent="1">
          <mxGeometry x="85" y="210" width="140" height="60" as="geometry" />
        </mxCell>
        <mxCell id="gzuC3hX4gOzSUYj86gef-12" style="edgeStyle=none;curved=1;rounded=0;orthogonalLoop=1;jettySize=auto;html=1;exitX=0.5;exitY=1;exitDx=0;exitDy=0;fontSize=12;startSize=8;endSize=8;" edge="1" parent="1" source="gzuC3hX4gOzSUYj86gef-7" target="o1bh6cQ6JeAcg9jFE79u-5">
          <mxGeometry relative="1" as="geometry" />
        </mxCell>
        <mxCell id="gzuC3hX4gOzSUYj86gef-7" value="RpcServer" style="swimlane;fontStyle=0;childLayout=stackLayout;horizontal=1;startSize=30;horizontalStack=0;resizeParent=1;resizeParentMax=0;resizeLast=0;collapsible=1;marginBottom=0;whiteSpace=wrap;html=1;" vertex="1" parent="1">
          <mxGeometry x="450" y="210" width="140" height="60" as="geometry" />
        </mxCell>
        <mxCell id="gzuC3hX4gOzSUYj86gef-17" value="" style="endArrow=none;dashed=1;html=1;dashPattern=1 3;strokeWidth=2;rounded=0;fontSize=12;startSize=8;endSize=8;curved=1;exitX=1;exitY=0.5;exitDx=0;exitDy=0;entryX=0;entryY=0.5;entryDx=0;entryDy=0;" edge="1" parent="1" source="gzuC3hX4gOzSUYj86gef-3" target="gzuC3hX4gOzSUYj86gef-7">
          <mxGeometry width="50" height="50" relative="1" as="geometry">
            <mxPoint x="340" y="450" as="sourcePoint" />
            <mxPoint x="390" y="400" as="targetPoint" />
          </mxGeometry>
        </mxCell>
        <mxCell id="gzuC3hX4gOzSUYj86gef-18" value="Netty" style="text;html=1;align=center;verticalAlign=middle;whiteSpace=wrap;rounded=0;" vertex="1" parent="1">
          <mxGeometry x="300" y="200" width="60" height="30" as="geometry" />
        </mxCell>
      </root>
    </mxGraphModel>
  </diagram>
</mxfile>
